# xmcd
#
# Track frame offsets: 
#        150
#        12833
#        27351
#        39438
#        49522
#        61344
#        73832
#        86322
#        95494
#        109128
#
# Disc length: 1668 seconds
#
# Revision: 0
# Processed by: cddbd v1.5.2PL0 Copyright (c) Steve Scherf et al.
# Submitted via: ExactAudioCopy v0.99pb3
#
DISCID=7806820a
DTITLE=Mickey Gilley - Kicking It Down The Road
DYEAR=2016
DGENRE=Easy Listening
TTITLE0=Add It Up
TTITLE1=I Tell It Like It Used To Be
TTITLE2=Kicking It Down The Road
TTITLE3=Song We Made Love To
TTITLE4=Remember Me When the Candlelights Are Gleaming
TTITLE5=Overnight Sensation
TTITLE6=Wenesday Night Poker
TTITLE7=Abilene
TTITLE8=Baby I Feel For You
TTITLE9=Jamaica
EXTD=
EXTT0=
EXTT1=
EXTT2=
EXTT3=
EXTT4=
EXTT5=
EXTT6=
EXTT7=
EXTT8=
EXTT9=
PLAYORDER=
